<svg viewBox="0 0 272 314" xmlns="http://www.w3.org/2000/svg" xml:space="preserve" fill-rule="evenodd" clip-rule="evenodd" stroke-linejoin="round" stroke-miterlimit="2">
  <path d="M-.01 235.485v-157L135.958-.013l135.97 78.5v157l-135.97 78.499-135.97-78.5Zm239.119-90.44v-34.26l-103.82 59.94v.2l-.17-.1-.18.1v-.2l-100.21-58.58v41.16l95.23 54.98v23.1l-95.23-54.99v37.14l102.19 59 29.04-16.76v-45.18l-36 20.79v-23.1l52-30.02v68.27l24.19-13.97v-67.73h.01l-.01-.76 32.96-19.03Zm0 23.1-16.96 9.79v45.39l16.96-9.79v-45.39Zm-142.6-43.67 39.45 22.77 46.65-26.93-39.2-22.92-46.9 27.08Zm-55.95-32.31 35.95 20.76 47.02-27.15-35.72-20.88-47.25 27.27Zm67.37-38.889 95.39 55.08 29-16.74-95.4-55.08-28.99 16.74Z"/>
</svg>
